/* XPM */
static char *_538058223454[] = {
/* columns rows colors chars-per-pixel */
"32 32 49 1 ",
"  c #1E63F6",
". c #2266F7",
"X c #2569F5",
"o c #2A6CF5",
"O c #306FF5",
"+ c #3472F5",
"@ c #3A76F5",
"# c #3F79F5",
"$ c #437CF5",
"% c #4C82F5",
"& c #5286F5",
"* c #578AF5",
"= c #5C8CF2",
"- c #618FF4",
"; c #6392F3",
": c #6A96F3",
"> c #6E99F3",
", c #739CF4",
"< c #75A0F5",
"1 c #7DA4F5",
"2 c #81A6F5",
"3 c #85A9F5",
"4 c #8BADF6",
"5 c #8FB1F5",
"6 c #8FB1F8",
"7 c #93B3F5",
"8 c #99B7F6",
"9 c #9AB8F7",
"0 c #A2BEF6",
"q c #A7C1F7",
"w c #AEC5F6",
"e c #B0C7F7",
"r c #B3CAF6",
"t c #B6CCF9",
"y c #BACFF9",
"u c #BDD1F7",
"i c #C3D3F7",
"p c #CAD9F7",
"a c #C3D5F8",
"s c #CBD9F9",
"d c #D0DEFA",
"f c #D5E1FA",
"g c #DCE6FB",
"h c #E5ECFC",
"j c #E8EFFC",
"k c #ECF1FD",
"l c #F3F6FD",
"z c #F7FAFD",
"x c #FFFFFF",
/* pixels */
"xxxxxxxxxxxxxxxxxxxxxxxxxxxxxxxx",
"xxxxxxxxxxxxxxxxxxxxxxxxxxxxxxxx",
"xxxxxxxxxxxxxxxxxxxxxxxxxxxxxxxx",
"xxxxxxxxxxxxxxxxxxxxxxxxxxxxxxxx",
"xxxxxxxxxxxxxlhffhzxxxxxxxxxxxxx",
"xxxxxxxxxxzi1==--=:7gxxxxxxxxxxx",
"xxxxxxxxxd,;35211451=5kxxxxxxxxx",
"xxxxxxxxe=43%o.  .O;5,:gxxxxxxxx",
"xxxxxxxw*9*X . .    o,3-gxxxxxxx",
"xxxxxxs*8$ ...$244444223>lxxxxxx",
"xxxxxl:6& .. &hxxxxxxg+2>0xxxxxx",
"xxxxxr:1.....0xxxf;;;&.O8=jxxxxx",
"xxxxx,4$....osxxx9    . ,>wxxxxx",
"xxxxh-4X..+@*kxxx4@+X...#51xxxxx",
"xxxxp;, .orjkxxxxkkqX...X5:lxxxx",
"xxxxt,= .oepjxxxzpp1.....3;jxxxx",
"xxxxe,*  %iahxxxlpi* ....3;jxxxx",
"xxxxy,;  >jkxxxxljh%.....4;kxxxx",
"xxxxd;<..o@-lxxx3++X....o5>zxxxx",
"xxxxl;7o.. :zxxl& ..... &34xxxxx",
"xxxxx32& . 6xxxg+...... 3;ixxxxx",
"xxxxxd-7o.Xyxxxy....X. &5,zxxxxx",
"xxxxxx7,2.Oahhj3 .....@9=sxxxxxx",
"xxxxxxl>21oO@@@o.... @8=0xxxxxxx",
"xxxxxxxj:,7$       X;9=8zxxxxxxx",
"xxxxxxxxk2-74-$@#%,71*wzxxxxxxxx",
"xxxxxxxxxzu>=,3441>=3gxxxxxxxxxx",
"xxxxxxxxxxxzfq4117thxxxxxxxxxxxx",
"xxxxxxxxxxxxxxxxxxxxxxxxxxxxxxxx",
"xxxxxxxxxxxxxxxxxxxxxxxxxxxxxxxx",
"xxxxxxxxxxxxxxxxxxxxxxxxxxxxxxxx",
"xxxxxxxxxxxxxxxzxxxxxxxxxxxxxxxx"
};
