/* XPM */
static char *_538058143031[] = {
/* columns rows colors chars-per-pixel */
"16 16 143 2 ",
"   c white",
".  c white",
"X  c white",
"o  c #FEFEFF",
"O  c #E3ECFC",
"+  c #BBCFF8",
"@  c #A6C0F7",
"#  c #A8C2F7",
"$  c #C1D4F9",
"%  c #EBF1FD",
"&  c white",
"*  c #FAFBFE",
"=  c #B9CEF8",
"-  c #7DA4F5",
";  c #5B8CF5",
":  c #467EF5",
">  c #477FF4",
",  c #5C8DF4",
"<  c #81A6F5",
"1  c #C8D8FA",
"2  c #FEFEFF",
"3  c white",
"4  c #B8CDF8",
"5  c #6B97F4",
"6  c #3774F6",
"7  c #2467F6",
"8  c #4980F6",
"9  c #5D8FF6",
"0  c #6393F6",
"q  c #78A1F6",
"w  c #7EA4F4",
"e  c #CBDAFA",
"r  c #E0E9FC",
"t  c #7AA2F5",
"y  c #3573F6",
"u  c #1B61F6",
"i  c #5689F6",
"p  c #EAF0FD",
"a  c #E9EFFD",
"s  c #AAC3F9",
"d  c #8FB0F7",
"f  c #4F84F5",
"g  c #88ACF5",
"h  c #EFF4FD",
"j  c white",
"k  c #B5CBF8",
"l  c #5689F5",
"z  c #2266F7",
"x  c #3573F7",
"c  c #97B6F9",
"v  c #CADAFB",
"b  c #3E79F7",
"n  c #2366F6",
"m  c #2467F6",
"M  c #6593F5",
"N  c #CBDAFA",
"B  c white",
"V  c #FEFEFF",
"C  c #9DBAF6",
"Z  c #417BF5",
"A  c #2F6FF6",
"S  c #AFC7F8",
"D  c #EDF2FD",
"F  c #E9EFFC",
"G  c #A0BCF8",
"H  c #296BF7",
"J  c #2064F7",
"K  c #5085F5",
"L  c #B2C9F8",
"P  c white",
"I  c #FDFDFF",
"U  c #9AB8F6",
"Y  c #3D78F5",
"T  c #427BF6",
"R  c #C3D4F8",
"E  c #F6F8FD",
"W  c white",
"Q  c #DEE8FB",
"!  c #86AAF6",
"~  c #2266F6",
"^  c #2064F7",
"/  c #4D83F5",
"(  c #AFC7F7",
")  c #ABC3F8",
"_  c #4D83F5",
"`  c #2568F6",
"'  c #6291F7",
"]  c #F3F6FE",
"[  c #F2F6FE",
"{  c #6292F7",
"}  c #2F6FF7",
"|  c #2266F7",
" . c #2166F7",
".. c #5C8EF4",
"X. c #C1D3F9",
"o. c #D2E0FB",
"O. c #6E9AF4",
"+. c #2769F5",
"@. c #6A97F8",
"#. c white",
"$. c #D9E4FC",
"%. c #3271F5",
"&. c #2064F7",
"*. c #2065F7",
"=. c #3473F6",
"-. c #7CA3F5",
";. c #E5ECFC",
":. c #FBFCFE",
">. c #A4BFF7",
",. c #5C8DF5",
"<. c #5B8DF6",
"1. c #90B1F9",
"2. c #6F9BF7",
"3. c #2366F6",
"4. c #1F64F7",
"5. c #306FF6",
"6. c #6996F4",
"7. c #B8CDF8",
"8. c white",
"9. c #F0F4FD",
"0. c #9FBBF7",
"q. c #6996F4",
"w. c #447CF5",
"e. c #3472F5",
"r. c #3875F6",
"t. c #4D83F6",
"y. c #719CF5",
"u. c #AEC7F7",
"i. c #F8FAFE",
"p. c #F7FAFE",
"a. c #C8D9FA",
"s. c #9DBAF7",
"d. c #89ACF5",
"f. c #8BAEF5",
"g. c #A3BEF7",
"h. c #D2E0FB",
"j. c #FBFCFE",
"k. c #FDFDFF",
"l. c #F6F9FE",
"z. c #F7F9FE",
"x. c #FEFEFF",
"c. c white",
"v. c white",
/* pixels */
"                                ",
"              . X               ",
"        o O + @ # $ % &         ",
"      * = - ; : > , < 1 2       ",
"    3 4 5 6 7 8 9 0 q w e       ",
"    r t y u i p a s d f g h     ",
"j   k l z x c   v b n m M N     ",
"B V C Z A S D   F G H J K L     ",
"P I U Y T R E W Q ! ~ ^ / (     ",
"j   ) _ ` ' ] [ { } |  ...X.    ",
"    o.O.+.@.#.$.%.&.*.=.-.;.    ",
"    :.>.,.<.1.2.3.4.5.6.7.8.    ",
"      9.0.q.w.e.r.t.y.u.i.      ",
"        p.a.s.d.f.g.h.j.        ",
"            k.l.z.x.            ",
"              c.v.              "
};
