/* XPM */
static char *_538058235991[] = {
/* columns rows colors chars-per-pixel */
"64 64 98 2 ",
"   c #1D5EEF",
".  c #1B5FF3",
"X  c #1D62EE",
"o  c #1D63F4",
"O  c #1D63F8",
"+  c #2365EE",
"@  c #2867ED",
"#  c #2668EF",
"$  c #2B6BEE",
"%  c #326EEF",
"&  c #2E70EB",
"*  c #3673ED",
"=  c #3A75EE",
"-  c #2266F6",
";  c #2A67F3",
":  c #2568F2",
">  c #2B6BF3",
",  c #2264F8",
"<  c #316EF2",
"1  c #2E70F0",
"2  c #3472F3",
"3  c #3A74F3",
"4  c #3F79F4",
"5  c #4077EC",
"6  c #447BED",
"7  c #437BF2",
"8  c #4A7EF2",
"9  c #4C82ED",
"0  c #5586ED",
"q  c #5887E9",
"w  c #5488ED",
"e  c #5B8BEE",
"r  c #4680F2",
"t  c #4C81F1",
"y  c #5285F3",
"u  c #5689F1",
"i  c #5A8BF3",
"p  c #5F91F2",
"a  c #638EEE",
"s  c #6491ED",
"d  c #6A95EC",
"f  c #6D98EF",
"g  c #749CED",
"h  c #618EF4",
"j  c #6492F3",
"k  c #6A96F4",
"l  c #6E99F3",
"z  c #749DF4",
"x  c #7BA4EF",
"c  c #76A0F3",
"v  c #7DA2F3",
"b  c #80A4ED",
"n  c #86ABEF",
"m  c #89AAEE",
"M  c #8FB0EF",
"N  c #92B1EE",
"B  c #9EB8EF",
"V  c #82A5F3",
"C  c #85A9F3",
"Z  c #8BACF3",
"A  c #90AFF1",
"S  c #8EB0F5",
"D  c #95B3F2",
"F  c #99B5F3",
"G  c #9CB9F4",
"H  c #98B3F8",
"J  c #A8BEEF",
"K  c #A2BDF3",
"L  c #B0C8EF",
"P  c #A7C1F5",
"I  c #ACC4F5",
"U  c #AEC8F1",
"Y  c #B1C6F4",
"T  c #B4CAF5",
"R  c #BACDF5",
"E  c #B5CAF8",
"W  c #BACEF9",
"Q  c #BED0F6",
"!  c #BED1F9",
"~  c #C4D5F6",
"^  c #C9D7F6",
"/  c #CCDBF6",
"(  c #C4D5F8",
")  c #C8D7F8",
"_  c #CCDBF9",
"`  c #D2DFF7",
"'  c #D3DFF9",
"]  c #D5E1F6",
"[  c #DBE4F7",
"{  c #D5E1F9",
"}  c #DBE5F9",
"|  c #DEE8FA",
" . c #E4EBFB",
".. c #E9EEFB",
"X. c #ECF2FC",
"o. c #F2F6FC",
"O. c #F6F8FD",
"+. c #FFFFFF",
/* pixels */
"+.+.+.+.+.+.+.+.+.+.+.+.+.+.+.+.+.+.+.+.+.+.+.+.+.+.+.+.+.+.+.+.+.+.+.+.+.+.+.+.+.+.+.+.+.+.+.+.+.+.+.+.+.+.+.+.+.+.+.+.+.+.+.+.",
"+.+.+.+.+.+.+.+.+.+.+.+.+.+.+.+.+.+.+.+.+.+.+.+.+.+.+.+.+.+.+.+.+.+.+.+.+.+.+.+.+.+.+.+.+.+.+.+.+.+.+.+.+.+.+.+.+.+.+.+.+.+.+.+.",
"+.+.+.+.+.+.+.+.+.+.+.+.+.+.+.+.+.+.+.+.+.+.+.+.+.+.+.+.+.+.+.+.+.+.+.+.+.+.+.+.+.+.+.+.+.+.+.+.+.+.+.+.+.+.+.+.+.+.+.+.+.+.+.+.",
"+.+.+.+.+.+.+.+.+.+.+.+.+.+.+.+.+.+.+.+.+.+.+.+.+.+.+.+.+.+.+.+.+.+.+.+.+.+.+.+.+.+.+.+.+.+.+.+.+.+.+.+.+.+.+.+.+.+.+.+.+.+.+.+.",
"+.+.+.+.+.+.+.+.+.+.+.+.+.+.+.+.+.+.+.+.+.+.+.+.+.+.+.+.+.+.+.+.+.+.+.+.+.+.+.+.+.+.+.+.+.+.+.+.+.+.+.+.+.+.+.+.+.+.+.+.+.+.+.+.",
"+.+.+.+.+.+.+.+.+.+.+.+.+.+.+.+.+.+.+.+.+.+.+.+.+.+.+.+.+.+.+.+.+.+.+.+.+.+.+.+.+.+.+.+.+.+.+.+.+.+.+.+.+.+.+.+.+.+.+.+.+.+.+.+.",
"+.+.+.+.+.+.+.+.+.+.+.+.+.+.+.+.+.+.+.+.+.+.+.+.+.+.+.+.+.+.+.+.+.+.+.+.+.+.+.+.+.+.+.+.+.+.+.+.+.+.+.+.+.+.+.+.+.+.+.+.+.+.+.+.",
"+.+.+.+.+.+.+.+.+.+.+.+.+.+.+.+.+.+.+.+.+.+.+.+.+.+.+.+.+.+.+.+.+.+.+.+.+.+.+.+.+.+.+.+.+.+.+.+.+.+.+.+.+.+.+.+.+.+.+.+.+.+.+.+.",
"+.+.+.+.+.+.+.+.+.+.+.+.+.+.+.+.+.+.+.+.+.+.+.+.+.+.+.+.+.+.+.+.+.+.+.+.+.+.+.+.+.+.+.+.+.+.+.+.+.+.+.+.+.+.+.+.+.+.+.+.+.+.+.+.",
"+.+.+.+.+.+.+.+.+.+.+.+.+.+.+.+.+.+.+.+.+.+.+.+.+.+.+.o. .} ^ ~ ^ `  .X.+.+.+.+.+.+.+.+.+.+.+.+.+.+.+.+.+.+.+.+.+.+.+.+.+.+.+.+.",
"+.+.+.+.+.+.+.+.+.+.+.+.+.+.+.+.+.+.+.+.+.+.+.+.} L b 0 = % : + + > * 9 g P ] O.+.+.+.+.+.+.+.+.+.+.+.+.+.+.+.+.+.+.+.+.+.+.+.+.",
"+.+.+.+.+.+.+.+.+.+.+.+.+.+.+.+.+.+.+.+.+.O.~ g = - o ; 3 9 s k k u 7 > X o < s L X.+.+.+.+.+.+.+.+.+.+.+.+.+.+.+.+.+.+.+.+.+.+.",
"+.+.+.+.+.+.+.+.+.+.+.+.+.+.+.+.+.+.+.+.^ l # o = z P ] } } } ] ] } | } R C 7 o + w L O.+.+.+.+.+.+.+.+.+.+.+.+.+.+.+.+.+.+.+.+.",
"+.+.+.+.+.+.+.+.+.+.+.+.+.+.+.+.+.+.X.m & . y K } } I V i 8 2 2 2 7 9 z G _  .E j + + f ] +.+.+.+.+.+.+.+.+.+.+.+.+.+.+.+.+.+.+.",
"+.+.+.+.+.+.+.+.+.+.+.+.+.+.+.+.+.] a o 3 G .._ V 3 , o o o o , o o o . - & k E  .E t o 6 R +.+.+.+.+.+.+.+.+.+.+.+.+.+.+.+.+.+.",
"+.+.+.+.+.+.+.+.+.+.+.+.+.+.+.+.~ 6 X j { { z > o o o , - , - , , , , , , , o , i Q ..V : < J O.+.+.+.+.+.+.+.+.+.+.+.+.+.+.+.+.",
"+.+.+.+.+.+.+.+.+.+.+.+.+.+.+.^ 5 o V ..P 2 o , - , - - - - - , - - , , - , - , o : C  .P > # K +.+.+.+.+.+.+.+.+.+.+.+.+.+.+.+.",
"+.+.+.+.+.+.+.+.+.+.+.+.+.+.` 6 + m ..x : , + - - , - , - - o o X o o o o o o o X o O i { ! 1 # I +.+.+.+.+.+.+.+.+.+.+.+.+.+.+.",
"+.+.+.+.+.+.+.+.+.+.+.+.+. .q . V X.z o , o , , - - - - o o ; * 2 2 * % * 2 * 2 2 2 2 1 u } E > = / +.+.+.+.+.+.+.+.+.+.+.+.+.+.",
"+.+.+.+.+.+.+.+.+.+.+.+.O.C X k ..v o , - - - , - - - - * C ~ } |  .|  .|  .}  .| | | ' 4 u } D o 0 X.+.+.+.+.+.+.+.+.+.+.+.+.+.",
"+.+.+.+.+.+.+.+.+.+.+.+.Q > 7 } G - X - - - - , - - o = ~ +.+.+.+.+.+.+.+.+.+.+.+.+.+. .2 O l X.l   N +.+.+.+.+.+.+.+.+.+.+.+.+.",
"+.+.+.+.+.+.+.+.+.+.+.o.e , I _ 2 o - - - , - - , , - P +.+.+.+.+.+.+.+.+.+.+.+.+.+.+.Q : - o G { 3 2 { +.+.+.+.+.+.+.+.+.+.+.+.",
"+.+.+.+.+.+.+.+.+.+.+.L + h  .i o - - - - - - - , o 9 ..+.+.+.+.+.+.+.[ F N D F F N F s : - O 2 ' F o x O.+.+.+.+.+.+.+.+.+.+.+.",
"+.+.+.+.+.+.+.+.+.+.o.e , R I : - X - - - - - - o . V +.+.+.+.+.+.+.+.D . . o . o o X - O - : O v } 5 * } +.+.+.+.+.+.+.+.+.+.+.",
"+.+.+.+.+.+.+.+.+.+.) @ i  .y o - - - - - , - - - O P O.+.+.+.+.+.+.O.g o - - - , , : , , - - - < ] Z . F +.+.+.+.+.+.+.+.+.+.+.",
"+.+.+.+.+.+.+.+.+.+.Z o K ! : , - - - - - , - - - 1 ) +.+.+.+.+.+.+.X.8 O , - - : , , : - - - - o D _ ; e o.+.+.+.+.+.+.+.+.+.+.",
"+.+.+.+.+.+.+.+.+.o.e > { V X - - , - , , O O O o 3 ..+.+.+.+.+.+.+.{ > O , - - , , - - - - - - O y  .y % ] +.+.+.+.+.+.+.+.+.+.",
"+.+.+.+.+.+.+.+.+.} % u | 8 o - - - , - , 3 3 2 2 k O.+.+.+.+.+.+.+.R 2 3 2 2 > , : , , - : - - , ; _ Z o U +.+.+.+.+.+.+.+.+.+.",
"+.+.+.+.+.+.+.+.+.R X v / > - - - - - O v X.......X.+.+.+.+.+.+.+.+.O..... ...C O - : - - , - - , o G U - Z +.+.+.+.+.+.+.+.+.+.",
"+.+.+.+.+.+.+.+.+.B X G Y : , , - - - - I +.+.+.+.+.+.+.+.+.+.+.+.+.+.+.+.+.+.v O - , , - , - - , o V ~ - d O.+.+.+.+.+.+.+.+.+.",
"+.+.+.+.+.+.+.+.+.Z o Y G o , , - - , 1 { +.+.+.+.+.+.+.+.+.+.+.+.+.+.+.+.+.o.u , - - , - - - - , o k } < w o.+.+.+.+.+.+.+.+.+.",
"+.+.+.+.+.+.+.+.+.v + Q S o , , - - , 1 V D M Z J O.+.+.+.+.+.+.+. .D N m D C 2 - , - - , - - - O O i } = t X.+.+.+.+.+.+.+.+.+.",
"+.+.+.+.+.+.+.+.+.g - ) n X - - , , o 8 m m m C J O.+.+.+.+.+.+.+.] m n Z m a - - - - - - - - - - - u | * 6 X.+.+.+.+.+.+.+.+.+.",
"+.+.+.+.+.+.+.+.+.x - ~ C o - - - , o Z +.+.+.+.+.+.+.+.+.+.+.+.+.+.+.+.+.+.J - - - - - : - - - : - u | 3 9 X.+.+.+.+.+.+.+.+.+.",
"+.+.+.+.+.+.+.+.+.b + T H o - - - - , U +.+.+.+.+.+.+.+.+.+.+.+.+.+.+.+.+.+.z o - - - - - - - - - O p | * 0 X.+.+.+.+.+.+.+.+.+.",
"+.+.+.+.+.+.+.+.+.N o K P o , - - - ; ~ X. . .X.+.+.+.+.+.+.+.+.+... .....} 0 - : - - - - - - - O O c _ # s O.+.+.+.+.+.+.+.+.+.",
"+.+.+.+.+.+.+.+.+.U X C ~ ; , , - - : 3 = 3 3 a o.+.+.+.+.+.+.+.{ r 3 = 3 3 , - - : - - : , - - - o G E o x +.+.+.+.+.+.+.+.+.+.",
"+.+.+.+.+.+.+.+.+.` ; j } 4 - - - - - - o , o k O.+.+.+.+.+.+.+.P X o o o , , , - - - - , : , , o # ! D X P +.+.+.+.+.+.+.+.+.+.",
"+.+.+.+.+.+.+.+.+...8 2 } l o , - , - - , , , Z +.+.+.+.+.+.+.+.C o - , - - - , - - , : , : - - O r | j : / +.+.+.+.+.+.+.+.+.+.",
"+.+.+.+.+.+.+.+.+.+.x - I U , , , - - - , , : T +.+.+.+.+.+.+.O.u o - - - - , - - - - - - , - - o x } 2 9 X.+.+.+.+.+.+.+.+.+.+.",
"+.+.+.+.+.+.+.+.+.+.R o l | 4 o - - - - - - 2 } +.+.+.+.+.+.+. .* o - - , , - - - : - - : - O O : ~ K o n +.+.+.+.+.+.+.+.+.+.+.",
"+.+.+.+.+.+.+.+.+.+.X.6 & / D o - - - - - O r X.+.+.+.+.+.+.+.) @ , - - : , - - - - - - o : - O p  .y @ ^ +.+.+.+.+.+.+.+.+.+.+.",
"+.+.+.+.+.+.+.+.+.+.+.G o c | r o o o , , o l O.+.+.+.+.+.+.+.G o - - - : , , : - : - - - O o 1 ( I o d O.+.+.+.+.+.+.+.+.+.+.+.",
"+.+.+.+.+.+.+.+.+.+.+.X.e : T ) 2 O - - - o G +.+.+.+.+.+.+.+.z O X - , , : , - - - - - o o o H { 4 2 ` +.+.+.+.+.+.+.+.+.+.+.+.",
"+.+.+.+.+.+.+.+.+.+.+.+.~ + 8 } G - o - - ; ~ +.+.+.+.+.+.+.X.8 O - , - - - - , - - - - - o l ..l   A +.+.+.+.+.+.+.+.+.+.+.+.+.",
"+.+.+.+.+.+.+.+.+.+.+.+.O.x X l  .v X , o < ^ .. .X... . ...) & O - - - , - - - , : - - o 9 | G o 0 ..+.+.+.+.+.+.+.+.+.+.+.+.+.",
"+.+.+.+.+.+.+.+.+.+.+.+.+. .0 o C X.z o , , * 2 3 2 2 3 * 3 2 o - - - - - , , - - , - O r } T & * ^ +.+.+.+.+.+.+.+.+.+.+.+.+.+.",
"+.+.+.+.+.+.+.+.+.+.+.+.+.+./ 6 , Z  .v + o , o o o o O o o , - - - - - : , , - - O - i } ! 1 : P +.+.+.+.+.+.+.+.+.+.+.+.+.+.+.",
"+.+.+.+.+.+.+.+.+.+.+.+.+.+.+.~ = - C  .K = . , - , , - , , + - - - , , - - - , o : V  .I 2 # K O.+.+.+.+.+.+.+.+.+.+.+.+.+.+.+.",
"+.+.+.+.+.+.+.+.+.+.+.+.+.+.+.+.~ 6   j ' ' l : . o - , , , o - o - , , , o o - i !  .C - & G O.+.+.+.+.+.+.+.+.+.+.+.+.+.+.+.+.",
"+.+.+.+.+.+.+.+.+.+.+.+.+.+.+.+.+.` a o 3 K  .~ z 3 - o o o , , - o o o o < h P ..W w o 5 R +.+.+.+.+.+.+.+.+.+.+.+.+.+.+.+.+.+.",
"+.+.+.+.+.+.+.+.+.+.+.+.+.+.+.+.+.+.X.m $ o y I  .} P g y 4 < $ 1 3 8 l G {  .Q k , + d ] +.+.+.+.+.+.+.+.+.+.+.+.+.+.+.+.+.+.+.",
"+.+.+.+.+.+.+.+.+.+.+.+.+.+.+.+.+.+.+.O./ s @ X 3 z T } } } } } } } } } ~ Z 8 : X 9 Y O.+.+.+.+.+.+.+.+.+.+.+.+.+.+.+.+.+.+.+.+.",
"+.+.+.+.+.+.+.+.+.+.+.+.+.+.+.+.+.+.+.+.+.O.~ c = , o > 7 i k z z p 7 2 o o $ e P X.+.+.+.+.+.+.+.+.+.+.+.+.+.+.+.+.+.+.+.+.+.+.",
"+.+.+.+.+.+.+.+.+.+.+.+.+.+.+.+.+.+.+.+.+.+.+.O.} I V w = $ + + + @ 2 t g K ` O.+.+.+.+.+.+.+.+.+.+.+.+.+.+.+.+.+.+.+.+.+.+.+.+.",
"+.+.+.+.+.+.+.+.+.+.+.+.+.+.+.+.+.+.+.+.+.+.+.+.+.+.+.X. .` ~ ~ ~ /  .X.O.+.+.+.+.+.+.+.+.+.+.+.+.+.+.+.+.+.+.+.+.+.+.+.+.+.+.+.",
"+.+.+.+.+.+.+.+.+.+.+.+.+.+.+.+.+.+.+.+.+.+.+.+.+.+.+.+.+.+.+.+.+.+.+.+.+.+.+.+.+.+.+.+.+.+.+.+.+.+.+.+.+.+.+.+.+.+.+.+.+.+.+.+.",
"+.+.+.+.+.+.+.+.+.+.+.+.+.+.+.+.+.+.+.+.+.+.+.+.+.+.+.+.+.+.+.+.+.+.+.+.+.+.+.+.+.+.+.+.+.+.+.+.+.+.+.+.+.+.+.+.+.+.+.+.+.+.+.+.",
"+.+.+.+.+.+.+.+.+.+.+.+.+.+.+.+.+.+.+.+.+.+.+.+.+.+.+.+.+.+.+.+.+.+.+.+.+.+.+.+.+.+.+.+.+.+.+.+.+.+.+.+.+.+.+.+.+.+.+.+.+.+.+.+.",
"+.+.+.+.+.+.+.+.+.+.+.+.+.+.+.+.+.+.+.+.+.+.+.+.+.+.+.+.+.+.+.+.+.+.+.+.+.+.+.+.+.+.+.+.+.+.+.+.+.+.+.+.+.+.+.+.+.+.+.+.+.+.+.+.",
"+.+.+.+.+.+.+.+.+.+.+.+.+.+.+.+.+.+.+.+.+.+.+.+.+.+.+.+.+.+.+.+.+.+.+.+.+.+.+.+.+.+.+.+.+.+.+.+.+.+.+.+.+.+.+.+.+.+.+.+.+.+.+.+.",
"+.+.+.+.+.+.+.+.+.+.+.+.+.+.+.+.+.+.+.+.+.+.+.+.+.+.+.+.+.+.+.+.+.+.+.+.+.+.+.+.+.+.+.+.+.+.+.+.+.+.+.+.+.+.+.+.+.+.+.+.+.+.+.+.",
"+.+.+.+.+.+.+.+.+.+.+.+.+.+.+.+.+.+.+.+.+.+.+.+.+.+.+.+.+.+.+.+.+.+.+.+.+.+.+.+.+.+.+.+.+.+.+.+.+.+.+.+.+.+.+.+.+.+.+.+.+.+.+.+.",
"+.+.+.+.+.+.+.+.+.+.+.+.+.+.+.+.+.+.+.+.+.+.+.+.+.+.+.+.+.+.O.O.+.O.+.+.+.+.+.+.+.+.+.+.+.+.+.+.+.+.+.+.+.+.+.+.+.+.+.+.+.+.+.+."
};
